<svg width="50" height="50" viewBox="0 0 50 50" fill="none" xmlns="http://www.w3.org/2000/svg">
<path d="M21.1876 10.4167C21.4988 10.4156 21.8063 10.4843 22.0875 10.6177C22.3687 10.7511 22.6165 10.9458 22.8126 11.1875L32.8751 23.6875C33.1815 24.0603 33.349 24.5279 33.349 25.0104C33.349 25.493 33.1815 25.9606 32.8751 26.3333L22.4584 38.8333C22.1048 39.2588 21.5966 39.5263 21.0457 39.5771C20.4949 39.6279 19.9464 39.4578 19.5209 39.1042C19.0954 38.7505 18.8279 38.2424 18.7771 37.6915C18.7263 37.1406 18.8964 36.5921 19.2501 36.1667L28.5626 25L19.5626 13.8333C19.3078 13.5275 19.146 13.1551 19.0962 12.7603C19.0465 12.3654 19.1109 11.9645 19.2818 11.605C19.4528 11.2456 19.7231 10.9427 20.0609 10.7321C20.3986 10.5215 20.7896 10.412 21.1876 10.4167Z" fill="#231F20"/>
</svg>
