<svg width="40" height="35" viewBox="0 0 40 35" fill="none" xmlns="http://www.w3.org/2000/svg">
<path fill-rule="evenodd" clip-rule="evenodd" d="M21.8181 1.76074L21.8182 1.76068L20 0L19.9999 5.97086e-05L19.9999 7.96115e-06L18.1817 1.76069L18.1818 1.76074L0 19.3675L1.81818 21.1282L4.57221 18.4612V32.5099V32.5101V34.9999H35.4278V32.5099H35.4277V18.4613L38.1817 21.1282L39.9999 19.3675L21.8181 1.76074ZM7.14351 32.5099V15.9713L19.9999 3.52142L32.8564 15.9713V32.5099H25.1425V22.5502H22.5712V32.5099H17.4287V22.5502H14.8574V32.5099H7.14351ZM25.1426 20.0602H14.8574V22.5502H25.1426V20.0602Z" fill="black" fill-opacity="0.8"/>
</svg>
